# xmcd
#
# Track frame offsets:
#	150
#	17313
#	36443
#	50116
#	67650
#	85667
#	98434
#	112645
#	123553
#	139384
#	149461
#	168567
#	183629
#	199483
#	217373
#	236084
#	255875
#	277328
#
# Disc length: 3964 seconds
# Revision: 2
# Processed by: cddbd v1.5.2PL0 Copyright (c) Steve Scherf et al.
# Submitted via: dBpowerAMP V12.0
#
DISCID=0e0f7a12
DTITLE=Various Artist - CDX Volume 358
DYEAR=2004
DGENRE=
TTITLE0=Cledus T. Judd - Bake Me a Country Ham
TTITLE1=Martina McBride - God's Will (Single Ver)
TTITLE2=Montgomery Gentry - Gone (Radio Edit)
TTITLE3=Trent Willmon - Home Sweet Holiday Inn
TTITLE4=Brooks and Dunn - It's Getting Better All the Time (Single Ver)
TTITLE5=Blue County - Nothin' But Cowboy Boots
TTITLE6=Keith Anderson - Pickin' Wildflowers
TTITLE7=Joe Nichols - What's a Guy Gotta Do
TTITLE8=Zona Jones - Two Hears (One Love)
TTITLE9=Vern Gosdin - Back in the Swing of Things
TTITLE10=Caroline Brown - Lemonade
TTITLE11=Morrison - Williams - My Girl Friday
TTITLE12=Fanny Grace - Sweet Tea
TTITLE13=Robbie Wootin - Tough in Sante Fe
TTITLE14=Love Pirate - I'll Be Home for Christmas
TTITLE15=Jim Weatherly - My Kind of Christmas
TTITLE16=Hal Bynum - Change (A Kind of Christmas Carol)
TTITLE17=J. O'neal, J. Roberts, R. L. Howard, A. Dalley S. Austin, S. Hayes - Special Event Record of a Soldier's Wife
EXTD=
EXTT0=
EXTT1=
EXTT2=
EXTT3=
EXTT4=
EXTT5=
EXTT6=
EXTT7=
EXTT8=
EXTT9=
EXTT10=
EXTT11=
EXTT12=
EXTT13=
EXTT14=
EXTT15=
EXTT16=
EXTT17=
PLAYORDER=
